<?xml version="1.0" encoding="UTF-8" standalone="no"?>
<svg
   xmlns:dc="http://purl.org/dc/elements/1.1/"
   xmlns:cc="http://creativecommons.org/ns#"
   xmlns:rdf="http://www.w3.org/1999/02/22-rdf-syntax-ns#"
   xmlns:svg="http://www.w3.org/2000/svg"
   xmlns="http://www.w3.org/2000/svg"
   xmlns:sodipodi="http://sodipodi.sourceforge.net/DTD/sodipodi-0.dtd"
   xmlns:inkscape="http://www.inkscape.org/namespaces/inkscape"
   viewBox="0 0 126.60601 126.61"
   version="1.1"
   id="svg550"
   sodipodi:docname="binance-icon.svg"
   width="126.606"
   height="126.61"
   inkscape:version="1.0.2 (e86c870879, 2021-01-15)">
  <metadata
     id="metadata556">
    <rdf:RDF>
      <cc:Work
         rdf:about="">
        <dc:format>image/svg+xml</dc:format>
        <dc:type
           rdf:resource="http://purl.org/dc/dcmitype/StillImage" />
        <dc:title></dc:title>
      </cc:Work>
    </rdf:RDF>
  </metadata>
  <defs
     id="defs554" />
  <sodipodi:namedview
     pagecolor="#ffffff"
     bordercolor="#666666"
     borderopacity="1"
     objecttolerance="10"
     gridtolerance="10"
     guidetolerance="10"
     inkscape:pageopacity="0"
     inkscape:pageshadow="2"
     inkscape:window-width="1536"
     inkscape:window-height="832"
     id="namedview552"
     showgrid="false"
     inkscape:zoom="1.530709"
     inkscape:cx="164.81622"
     inkscape:cy="67.255375"
     inkscape:window-x="0"
     inkscape:window-y="0"
     inkscape:window-maximized="1"
     inkscape:current-layer="g548" />
  <g
     fill="#f3ba2f"
     id="g548"
     transform="translate(0.00512169)">
    <path
       d="M 38.72,53.2 63.31,28.62 87.91,53.22 102.21,38.91 63.31,0 24.41,38.9 Z"
       id="path522" />
    <path
       d="M 3.64,53.19 H 23.87 V 73.42 H 3.64 Z"
       transform="rotate(-45,14.029909,62.648622)"
       id="path524" />
    <path
       d="M 38.72,73.41 63.31,98 87.91,73.4 102.22,87.69 102.21,87.7 63.31,126.61 24.41,87.72 24.39,87.7 Z"
       id="path526" />
    <path
       d="m 101.64,53.19 h 20.23 v 20.23 h -20.23 z"
       transform="rotate(-45,112.03241,62.654657)"
       id="path528" />
    <path
       d="M 77.82,63.3 63.31,48.78 52.58,59.51 l -1.24,1.23 -2.54,2.54 -0.02,0.02 0.02,0.03 14.51,14.5 14.51,-14.52 0.01,-0.01 z"
       id="path530" />
  </g>
</svg>
