<?xml version="1.0" encoding="UTF-8" standalone="no"?>
<svg
   xmlns:dc="http://purl.org/dc/elements/1.1/"
   xmlns:cc="http://creativecommons.org/ns#"
   xmlns:rdf="http://www.w3.org/1999/02/22-rdf-syntax-ns#"
   xmlns:svg="http://www.w3.org/2000/svg"
   xmlns="http://www.w3.org/2000/svg"
   xmlns:sodipodi="http://sodipodi.sourceforge.net/DTD/sodipodi-0.dtd"
   xmlns:inkscape="http://www.inkscape.org/namespaces/inkscape"
   version="1.1"
   id="图层_1"
   x="0px"
   y="0px"
   viewBox="0 0 23.28664 17.299999"
   xml:space="preserve"
   sodipodi:docname="bitglobal-icon.svg"
   width="23.28664"
   height="17.299999"
   inkscape:version="1.0.2 (e86c870879, 2021-01-15)"><metadata
   id="metadata804"><rdf:RDF><cc:Work
       rdf:about=""><dc:format>image/svg+xml</dc:format><dc:type
         rdf:resource="http://purl.org/dc/dcmitype/StillImage" /></cc:Work></rdf:RDF></metadata><defs
   id="defs802" /><sodipodi:namedview
   pagecolor="#ffffff"
   bordercolor="#666666"
   borderopacity="1"
   objecttolerance="10"
   gridtolerance="10"
   guidetolerance="10"
   inkscape:pageopacity="0"
   inkscape:pageshadow="2"
   inkscape:window-width="1442"
   inkscape:window-height="792"
   id="namedview800"
   showgrid="false"
   inkscape:zoom="10.096"
   inkscape:cx="29.898088"
   inkscape:cy="8.534524"
   inkscape:window-x="19"
   inkscape:window-y="13"
   inkscape:window-maximized="0"
   inkscape:current-layer="g786" />
<style
   type="text/css"
   id="style766">
	.st0{fill:#FFFFFF;}
	.st1{fill:url(#SVGID_1_);}
	.st2{fill:#F37320;}
</style>
<g
   id="g786"
   transform="translate(-0.9,-3.3)">
	
	
	
	
	
	
	
	
	
</g>
<g
   id="g797"
   transform="translate(-0.9,-3.3)">
	
		<linearGradient
   id="SVGID_1_"
   gradientUnits="userSpaceOnUse"
   x1="23.167601"
   y1="10.9829"
   x2="10.3446"
   y2="6.2723999"
   gradientTransform="matrix(1,0,0,-1,0,25)">
		<stop
   offset="0.3633"
   style="stop-color:#D63026"
   id="stop788" />
		<stop
   offset="1"
   style="stop-color:#F37320"
   id="stop790" />
	</linearGradient>
	<path
   class="st1"
   d="m 21.1,10.8 -3.5,1.2 -1.7,2 -0.7,2.5 H 5.7 l -1.1,4.1 h 10.6 c 2.8,0 5.9,-2.1 6.9,-5 0.7,-2 0.2,-3.7 -1,-4.8 z"
   id="path793"
   style="fill:url(#SVGID_1_)" />
	<path
   class="st2"
   d="m 9,16.5 c -2.7,0 -2.8,-2 -2.5,-3.1 0.3,-1.1 0,0 0.5,-2 0.3,-1 1,-2.1 2,-2.9 v 0 C 9.1,8.4 9.3,8.3 9.4,8.2 c 0,0 0,0 0.1,0 0.9,-0.5 1.9,-0.9 3,-0.9 2.9,0 5.1,0 5.1,0 L 18,6.1 21,8.6 16.6,11.1 17,9.8 H 12.2 C 10.5,9.8 10,11 9.8,11.5 9.7,12.3 9.5,14 11.6,14 h 3.7 1.7 c 2.8,0 5.9,-2.1 6.9,-5 1,-3.1 -0.7,-5.7 -3.8,-5.7 H 9.9 c -1.1,0 -2.2,0.3 -3,0.9 0,0 0,0 -0.1,0 C 6.7,4.3 6.5,4.4 6.4,4.5 v 0 c -1,0.8 -1.7,1.8 -2,2.9 L 0.9,20.6 h 4.4 l 1.1,-4.1 h 3 v 0 c -0.2,0 -0.4,0 -0.5,0"
   id="path795" />
</g>
</svg>
