<?xml version="1.0" encoding="UTF-8" standalone="no"?>
<svg
   xmlns:dc="http://purl.org/dc/elements/1.1/"
   xmlns:cc="http://creativecommons.org/ns#"
   xmlns:rdf="http://www.w3.org/1999/02/22-rdf-syntax-ns#"
   xmlns:svg="http://www.w3.org/2000/svg"
   xmlns="http://www.w3.org/2000/svg"
   xmlns:sodipodi="http://sodipodi.sourceforge.net/DTD/sodipodi-0.dtd"
   xmlns:inkscape="http://www.inkscape.org/namespaces/inkscape"
   width="746.74103"
   height="223.99899"
   viewBox="0 0 746.74103 223.99899"
   fill="none"
   version="1.1"
   id="svg146"
   sodipodi:docname="OKX.svg"
   inkscape:version="1.0.2 (e86c870879, 2021-01-15)">
  <metadata
     id="metadata152">
    <rdf:RDF>
      <cc:Work
         rdf:about="">
        <dc:format>image/svg+xml</dc:format>
        <dc:type
           rdf:resource="http://purl.org/dc/dcmitype/StillImage" />
        <dc:title></dc:title>
      </cc:Work>
    </rdf:RDF>
  </metadata>
  <defs
     id="defs150" />
  <sodipodi:namedview
     pagecolor="#ffffff"
     bordercolor="#666666"
     borderopacity="1"
     objecttolerance="10"
     gridtolerance="10"
     guidetolerance="10"
     inkscape:pageopacity="0"
     inkscape:pageshadow="2"
     inkscape:window-width="1536"
     inkscape:window-height="832"
     id="namedview148"
     showgrid="false"
     fit-margin-top="0"
     fit-margin-left="0"
     fit-margin-right="0"
     fit-margin-bottom="0"
     inkscape:zoom="0.56388889"
     inkscape:cx="373.346"
     inkscape:cy="112"
     inkscape:window-x="0"
     inkscape:window-y="0"
     inkscape:window-maximized="1"
     inkscape:current-layer="svg146" />
  <path
     d="M 219.016,0 H 4.977 C 3.657,0 2.391,0.524 1.458,1.458 0.524,2.391 0,3.657 0,4.978 v 214.039 c 0,1.32 0.524,2.586 1.458,3.519 0.933,0.934 2.199,1.458 3.519,1.458 h 214.039 c 1.321,0 2.587,-0.524 3.52,-1.458 0.934,-0.933 1.458,-2.199 1.458,-3.519 V 4.978 c 0,-1.321 -0.524,-2.587 -1.458,-3.52 C 221.603,0.524 220.337,0 219.016,0 Z m -69.687,144.352 c 0,1.32 -0.524,2.586 -1.458,3.52 -0.933,0.933 -2.199,1.458 -3.519,1.458 h -64.71 c -1.32,0 -2.586,-0.525 -3.52,-1.458 -0.933,-0.934 -1.457,-2.2 -1.457,-3.52 v -64.71 c 0,-1.32 0.524,-2.586 1.457,-3.519 0.934,-0.934 2.2,-1.458 3.52,-1.458 h 64.71 c 1.32,0 2.586,0.524 3.519,1.458 0.934,0.933 1.458,2.199 1.458,3.519 z"
     fill="#000000"
     id="path128" />
  <path
     d="M 667.129,74.673 H 602.42 c -2.749,0 -4.978,2.228 -4.978,4.977 v 64.71 c 0,2.749 2.229,4.978 4.978,4.978 h 64.709 c 2.749,0 4.978,-2.229 4.978,-4.978 V 79.65 c 0,-2.749 -2.229,-4.977 -4.978,-4.977 z"
     fill="#000000"
     id="path130" />
  <path
     d="m 592.434,0.006 h -64.709 c -2.749,0 -4.978,2.228 -4.978,4.978 v 64.709 c 0,2.749 2.229,4.978 4.978,4.978 h 64.709 c 2.75,0 4.978,-2.229 4.978,-4.978 V 4.984 c 0,-2.75 -2.228,-4.978 -4.978,-4.978 z"
     fill="#000000"
     id="path132" />
  <path
     d="m 741.764,0.006 h -64.71 c -2.749,0 -4.978,2.228 -4.978,4.978 v 64.709 c 0,2.749 2.229,4.978 4.978,4.978 h 64.71 c 2.749,0 4.977,-2.229 4.977,-4.978 V 4.984 c 0,-2.75 -2.228,-4.978 -4.977,-4.978 z"
     fill="#000000"
     id="path134" />
  <path
     d="m 592.434,149.334 h -64.709 c -2.749,0 -4.978,2.228 -4.978,4.977 v 64.71 c 0,2.749 2.229,4.978 4.978,4.978 h 64.709 c 2.75,0 4.978,-2.229 4.978,-4.978 v -64.71 c 0,-2.749 -2.228,-4.977 -4.978,-4.977 z"
     fill="#000000"
     id="path136" />
  <path
     d="m 741.764,149.334 h -64.71 c -2.749,0 -4.978,2.228 -4.978,4.977 v 64.71 c 0,2.749 2.229,4.978 4.978,4.978 h 64.71 c 2.749,0 4.977,-2.229 4.977,-4.978 v -64.71 c 0,-2.749 -2.228,-4.977 -4.977,-4.977 z"
     fill="#000000"
     id="path138" />
  <path
     d="m 480.343,0.006 h -64.709 c -2.749,0 -4.978,2.228 -4.978,4.978 v 64.709 c 0,2.749 2.229,4.978 4.978,4.978 h 64.709 c 2.749,0 4.978,-2.229 4.978,-4.978 V 4.984 c 0,-2.75 -2.229,-4.978 -4.978,-4.978 z"
     fill="#000000"
     id="path140" />
  <path
     d="m 480.343,149.334 h -64.709 c -2.749,0 -4.978,2.228 -4.978,4.977 v 64.71 c 0,2.749 2.229,4.978 4.978,4.978 h 64.709 c 2.749,0 4.978,-2.229 4.978,-4.978 v -64.71 c 0,-2.749 -2.229,-4.977 -4.978,-4.977 z"
     fill="#000000"
     id="path142" />
  <path
     d="m 410.656,79.586 c 0,-1.32 -0.525,-2.586 -1.458,-3.519 -0.934,-0.934 -2.2,-1.458 -3.52,-1.458 H 335.991 V 4.978 c 0,-1.321 -0.525,-2.587 -1.458,-3.52 C 333.599,0.524 332.333,0 331.013,0 h -64.709 c -1.321,0 -2.587,0.524 -3.52,1.458 -0.934,0.933 -1.458,2.199 -1.458,3.52 v 213.927 c 0,1.32 0.524,2.586 1.458,3.519 0.933,0.934 2.199,1.458 3.52,1.458 h 64.709 c 1.32,0 2.586,-0.524 3.52,-1.458 0.933,-0.933 1.458,-2.199 1.458,-3.519 v -69.631 h 69.687 c 1.32,0 2.586,-0.525 3.52,-1.458 0.933,-0.934 1.458,-2.2 1.458,-3.52 z"
     fill="#000000"
     id="path144" />
</svg>
