<?xml version="1.0" encoding="UTF-8" standalone="no"?>
<svg
   xmlns:dc="http://purl.org/dc/elements/1.1/"
   xmlns:cc="http://creativecommons.org/ns#"
   xmlns:rdf="http://www.w3.org/1999/02/22-rdf-syntax-ns#"
   xmlns:svg="http://www.w3.org/2000/svg"
   xmlns="http://www.w3.org/2000/svg"
   xmlns:sodipodi="http://sodipodi.sourceforge.net/DTD/sodipodi-0.dtd"
   xmlns:inkscape="http://www.inkscape.org/namespaces/inkscape"
   width="223.994"
   height="223.993"
   viewBox="0 0 223.994 223.99299"
   fill="none"
   version="1.1"
   id="svg146"
   sodipodi:docname="OKX-icon.svg"
   inkscape:version="1.0.2 (e86c870879, 2021-01-15)">
  <metadata
     id="metadata152">
    <rdf:RDF>
      <cc:Work
         rdf:about="">
        <dc:format>image/svg+xml</dc:format>
        <dc:type
           rdf:resource="http://purl.org/dc/dcmitype/StillImage" />
        <dc:title />
      </cc:Work>
    </rdf:RDF>
  </metadata>
  <defs
     id="defs150" />
  <sodipodi:namedview
     pagecolor="#ffffff"
     bordercolor="#666666"
     borderopacity="1"
     objecttolerance="10"
     gridtolerance="10"
     guidetolerance="10"
     inkscape:pageopacity="0"
     inkscape:pageshadow="2"
     inkscape:window-width="1536"
     inkscape:window-height="832"
     id="namedview148"
     showgrid="false"
     fit-margin-top="0"
     fit-margin-left="0"
     fit-margin-right="0"
     fit-margin-bottom="0"
     inkscape:zoom="0.56388889"
     inkscape:cx="-149.401"
     inkscape:cy="111.994"
     inkscape:window-x="0"
     inkscape:window-y="0"
     inkscape:window-maximized="1"
     inkscape:current-layer="svg146"
     inkscape:document-rotation="0" />
  <path
     d="M 144.382,74.667 H 79.673 c -2.749,0 -4.978,2.228 -4.978,4.977 v 64.71 c 0,2.749 2.229,4.978 4.978,4.978 h 64.709 c 2.749,0 4.978,-2.229 4.978,-4.978 v -64.71 c 0,-2.749 -2.229,-4.977 -4.978,-4.977 z"
     fill="#000000"
     id="path130" />
  <path
     d="M 69.687,0 H 4.978 C 2.229,0 0,2.228 0,4.978 v 64.709 c 0,2.749 2.229,4.978 4.978,4.978 h 64.709 c 2.75,0 4.978,-2.229 4.978,-4.978 V 4.978 C 74.665,2.228 72.437,0 69.687,0 Z"
     fill="#000000"
     id="path132" />
  <path
     d="m 219.017,0 h -64.71 c -2.749,0 -4.978,2.228 -4.978,4.978 v 64.709 c 0,2.749 2.229,4.978 4.978,4.978 h 64.71 c 2.749,0 4.977,-2.229 4.977,-4.978 V 4.978 C 223.994,2.228 221.766,0 219.017,0 Z"
     fill="#000000"
     id="path134" />
  <path
     d="M 69.687,149.328 H 4.978 C 2.229,149.328 0,151.556 0,154.305 v 64.71 c 0,2.749 2.229,4.978 4.978,4.978 h 64.709 c 2.75,0 4.978,-2.229 4.978,-4.978 v -64.71 c 0,-2.749 -2.228,-4.977 -4.978,-4.977 z"
     fill="#000000"
     id="path136" />
  <path
     d="m 219.017,149.328 h -64.71 c -2.749,0 -4.978,2.228 -4.978,4.977 v 64.71 c 0,2.749 2.229,4.978 4.978,4.978 h 64.71 c 2.749,0 4.977,-2.229 4.977,-4.978 v -64.71 c 0,-2.749 -2.228,-4.977 -4.977,-4.977 z"
     fill="#000000"
     id="path138" />
</svg>
