<?xml version="1.0" encoding="UTF-8" standalone="no"?>
<svg
   xmlns:dc="http://purl.org/dc/elements/1.1/"
   xmlns:cc="http://creativecommons.org/ns#"
   xmlns:rdf="http://www.w3.org/1999/02/22-rdf-syntax-ns#"
   xmlns:svg="http://www.w3.org/2000/svg"
   xmlns="http://www.w3.org/2000/svg"
   xmlns:sodipodi="http://sodipodi.sourceforge.net/DTD/sodipodi-0.dtd"
   xmlns:inkscape="http://www.inkscape.org/namespaces/inkscape"
   width="53.920479mm"
   height="9.8424664mm"
   viewBox="0 0 53.920479 9.8424664"
   version="1.1"
   id="svg8"
   sodipodi:docname="zenfusejs-logo-no-frame.svg"
   inkscape:version="1.0.2 (e86c870879, 2021-01-15)">
  <defs
     id="defs2" />
  <sodipodi:namedview
     id="base"
     pagecolor="#ffffff"
     bordercolor="#666666"
     borderopacity="1.0"
     inkscape:pageopacity="0.0"
     inkscape:pageshadow="2"
     inkscape:zoom="1.907378"
     inkscape:cx="59.111211"
     inkscape:cy="72.09695"
     inkscape:document-units="mm"
     inkscape:current-layer="layer1"
     inkscape:document-rotation="0"
     showgrid="false"
     inkscape:window-width="1536"
     inkscape:window-height="832"
     inkscape:window-x="0"
     inkscape:window-y="0"
     inkscape:window-maximized="1"
     fit-margin-top="0"
     fit-margin-left="0"
     fit-margin-right="0"
     fit-margin-bottom="0" />
  <metadata
     id="metadata5">
    <rdf:RDF>
      <cc:Work
         rdf:about="">
        <dc:format>image/svg+xml</dc:format>
        <dc:type
           rdf:resource="http://purl.org/dc/dcmitype/StillImage" />
        <dc:title />
      </cc:Work>
    </rdf:RDF>
  </metadata>
  <g
     inkscape:label="Layer 1"
     inkscape:groupmode="layer"
     id="layer1"
     style="display:inline"
     transform="translate(-29.982344,-33.942964)">
    <g
       aria-label="zenfuse.js"
       transform="translate(3.4043938,0.23786684)"
       id="text12"
       style="font-style:normal;font-weight:normal;font-size:10.5833px;line-height:1.25;font-family:sans-serif;white-space:pre;shape-inside:url(#rect14);display:inline;fill:#000000;fill-opacity:1;stroke:none;stroke-width:0.264583">
      <path
         d="m 26.842529,41.53673 q -0.105833,0 -0.190499,-0.07408 -0.07408,-0.07408 -0.07408,-0.1905 v -0.8255 q 0,-0.116416 0.04233,-0.201083 0.05292,-0.08467 0.126999,-0.158749 l 2.476493,-2.688158 h -2.285993 q -0.116416,0 -0.201083,-0.07408 -0.07408,-0.07408 -0.07408,-0.190499 V 36.298 q 0,-0.116416 0.07408,-0.190499 0.08467,-0.07408 0.201083,-0.07408 h 4.254486 q 0.105833,0 0.179916,0.07408 0.08467,0.07408 0.08467,0.190499 v 0.899581 q 0,0.09525 -0.04233,0.169333 -0.04233,0.07408 -0.105833,0.148166 l -2.412993,2.656408 h 2.508242 q 0.116417,0 0.1905,0.07408 0.07408,0.07408 0.07408,0.1905 v 0.83608 q 0,0.116417 -0.07408,0.1905 -0.07408,0.07408 -0.1905,0.07408 z"
         style="font-style:normal;font-variant:normal;font-weight:bold;font-stretch:normal;font-family:Rubik;-inkscape-font-specification:'Rubik Bold';fill:#000000;stroke-width:0.264583"
         id="path920" />
      <path
         d="m 35.138487,41.642563 q -1.248829,0 -1.98966,-0.677331 -0.740831,-0.677332 -0.772581,-2.010827 0,-0.07408 0,-0.1905 0,-0.116416 0,-0.179916 0.03175,-0.836081 0.370415,-1.428745 0.349249,-0.603248 0.952497,-0.910164 0.613832,-0.317499 1.428746,-0.317499 0.93133,0 1.534578,0.370415 0.613832,0.370416 0.920747,1.005414 0.306916,0.634998 0.306916,1.449912 v 0.253999 q 0,0.116416 -0.08467,0.190499 -0.07408,0.07408 -0.179916,0.07408 h -3.386656 q 0,0.01058 0,0.03175 0,0.02117 0,0.04233 0.01058,0.306915 0.105833,0.560915 0.09525,0.253999 0.296332,0.402165 0.201083,0.148166 0.486832,0.148166 0.211666,0 0.349249,-0.0635 0.148166,-0.07408 0.243416,-0.158749 0.09525,-0.09525 0.148166,-0.15875 0.09525,-0.105833 0.148166,-0.126999 0.0635,-0.03175 0.190499,-0.03175 h 1.31233 q 0.105833,0 0.169332,0.0635 0.07408,0.05292 0.0635,0.158749 -0.01058,0.179916 -0.179916,0.433915 -0.169333,0.254 -0.497415,0.507999 -0.317499,0.243416 -0.804331,0.402165 -0.486832,0.15875 -1.132413,0.15875 z m -0.89958,-3.418406 h 1.788577 v -0.02117 q 0,-0.338665 -0.105833,-0.592664 -0.09525,-0.254 -0.306915,-0.391583 -0.201083,-0.137582 -0.486832,-0.137582 -0.285749,0 -0.486832,0.137582 -0.190499,0.137583 -0.296332,0.391583 -0.105833,0.253999 -0.105833,0.592664 z"
         style="font-style:normal;font-variant:normal;font-weight:bold;font-stretch:normal;font-family:Rubik;-inkscape-font-specification:'Rubik Bold';fill:#000000;stroke-width:0.264583"
         id="path922" />
      <path
         d="m 39.149556,41.53673 q -0.116416,0 -0.190499,-0.07408 -0.07408,-0.07408 -0.07408,-0.1905 v -4.974151 q 0,-0.116416 0.07408,-0.190499 0.07408,-0.07408 0.190499,-0.07408 h 1.21708 q 0.116416,0 0.190499,0.07408 0.07408,0.07408 0.07408,0.190499 v 0.402166 q 0.275166,-0.328083 0.719665,-0.550332 0.444498,-0.222249 1.047746,-0.222249 0.613832,0 1.079497,0.275166 0.476248,0.275165 0.740831,0.814914 0.275166,0.529165 0.275166,1.301746 v 2.95274 q 0,0.116417 -0.08467,0.1905 -0.07408,0.07408 -0.179916,0.07408 h -1.333496 q -0.105833,0 -0.190499,-0.07408 -0.07408,-0.07408 -0.07408,-0.1905 v -2.889241 q 0,-0.497415 -0.243416,-0.761997 -0.232833,-0.275166 -0.698498,-0.275166 -0.433915,0 -0.698498,0.275166 -0.253999,0.264582 -0.253999,0.761997 v 2.889241 q 0,0.116417 -0.08467,0.1905 -0.07408,0.07408 -0.179916,0.07408 z"
         style="font-style:normal;font-variant:normal;font-weight:bold;font-stretch:normal;font-family:Rubik;-inkscape-font-specification:'Rubik Bold';fill:#000000;stroke-width:0.264583"
         id="path924" />
      <path
         d="m 46.516836,41.53673 q -0.105833,0 -0.1905,-0.07408 -0.07408,-0.07408 -0.07408,-0.1905 v -3.852321 h -0.804331 q -0.116416,0 -0.190499,-0.07408 -0.07408,-0.07408 -0.07408,-0.190499 v -0.857248 q 0,-0.116416 0.07408,-0.190499 0.07408,-0.07408 0.190499,-0.07408 h 0.804331 v -0.338666 q 0,-0.719664 0.275166,-1.153579 0.285749,-0.444499 0.804331,-0.634998 0.518581,-0.201083 1.238246,-0.201083 h 0.825497 q 0.105833,0 0.179916,0.07408 0.08467,0.07408 0.08467,0.190499 v 0.857248 q 0,0.116416 -0.08467,0.190499 -0.07408,0.07408 -0.179916,0.07408 h -0.740831 q -0.359832,0 -0.507998,0.169333 -0.137583,0.169333 -0.137583,0.486832 v 0.285749 h 1.280579 q 0.105833,0 0.179916,0.07408 0.08467,0.07408 0.08467,0.190499 v 0.857248 q 0,0.116416 -0.08467,0.190499 -0.07408,0.07408 -0.179916,0.07408 h -1.280579 v 3.852321 q 0,0.116417 -0.07408,0.1905 -0.07408,0.07408 -0.1905,0.07408 z"
         style="font-style:normal;font-variant:normal;font-weight:bold;font-stretch:normal;font-family:Rubik;-inkscape-font-specification:'Rubik Bold';fill:#000000;stroke-width:0.264583"
         id="path926" />
      <path
         d="m 52.337639,41.642563 q -0.603248,0 -1.079496,-0.275166 -0.465665,-0.275166 -0.730248,-0.804331 -0.264582,-0.539748 -0.264582,-1.312329 v -2.952741 q 0,-0.116416 0.07408,-0.190499 0.07408,-0.07408 0.190499,-0.07408 h 1.322913 q 0.116416,0 0.190499,0.07408 0.07408,0.07408 0.07408,0.190499 v 2.889241 q 0,1.037164 0.93133,1.037164 0.433916,0 0.687915,-0.264583 0.264582,-0.275166 0.264582,-0.772581 v -2.889241 q 0,-0.116416 0.07408,-0.190499 0.07408,-0.07408 0.1905,-0.07408 h 1.322912 q 0.116417,0 0.1905,0.07408 0.07408,0.07408 0.07408,0.190499 v 4.974151 q 0,0.116417 -0.07408,0.1905 -0.07408,0.07408 -0.1905,0.07408 H 54.35905 q -0.105833,0 -0.1905,-0.07408 -0.07408,-0.07408 -0.07408,-0.1905 v -0.402165 q -0.275166,0.380999 -0.719664,0.582081 -0.433916,0.1905 -1.037164,0.1905 z"
         style="font-style:normal;font-variant:normal;font-weight:bold;font-stretch:normal;font-family:Rubik;-inkscape-font-specification:'Rubik Bold';fill:#000000;stroke-width:0.264583"
         id="path928" />
      <path
         d="m 59.364937,41.642563 q -0.687914,0 -1.174746,-0.148166 -0.476248,-0.15875 -0.783164,-0.380999 -0.296332,-0.22225 -0.444499,-0.455082 -0.148166,-0.243416 -0.158749,-0.412749 -0.01058,-0.116416 0.07408,-0.190499 0.08467,-0.08467 0.179916,-0.08467 h 1.206496 q 0.03175,0 0.05292,0.01058 0.02117,0.01058 0.0635,0.04233 0.137583,0.07408 0.275166,0.190499 0.137583,0.105833 0.317499,0.1905 0.179916,0.08467 0.433916,0.08467 0.296332,0 0.497415,-0.116416 0.201082,-0.116417 0.201082,-0.349249 0,-0.169333 -0.09525,-0.275166 -0.09525,-0.116416 -0.391582,-0.222249 -0.28575,-0.105833 -0.867831,-0.211666 -0.550332,-0.127 -0.96308,-0.328083 -0.412749,-0.211666 -0.634998,-0.539748 -0.22225,-0.338665 -0.22225,-0.814914 0,-0.423332 0.275166,-0.814914 0.275166,-0.391582 0.804331,-0.634998 0.529165,-0.253999 1.301746,-0.253999 0.613831,0 1.05833,0.148166 0.455082,0.137583 0.761997,0.359832 0.317499,0.22225 0.476249,0.455082 0.158749,0.232833 0.169333,0.423332 0.01058,0.105833 -0.0635,0.1905 -0.07408,0.07408 -0.169333,0.07408 h -1.100663 q -0.04233,0 -0.08467,-0.01058 -0.04233,-0.02117 -0.07408,-0.04233 -0.126999,-0.0635 -0.253999,-0.169333 -0.126999,-0.105833 -0.296332,-0.190499 -0.169333,-0.08467 -0.423332,-0.08467 -0.285749,0 -0.444499,0.126999 -0.158749,0.127 -0.158749,0.328082 0,0.137583 0.08467,0.254 0.09525,0.116416 0.370416,0.211666 0.285749,0.09525 0.878414,0.211666 0.730247,0.116416 1.164163,0.380998 0.433915,0.254 0.613831,0.603248 0.179916,0.338666 0.179916,0.719665 0,0.507998 -0.306916,0.89958 -0.296332,0.391582 -0.888997,0.613832 -0.592665,0.211666 -1.439329,0.211666 z"
         style="font-style:normal;font-variant:normal;font-weight:bold;font-stretch:normal;font-family:Rubik;-inkscape-font-specification:'Rubik Bold';fill:#000000;stroke-width:0.264583"
         id="path930" />
      <path
         d="m 65.492661,41.642563 q -1.248829,0 -1.98966,-0.677331 -0.740831,-0.677332 -0.772581,-2.010827 0,-0.07408 0,-0.1905 0,-0.116416 0,-0.179916 0.03175,-0.836081 0.370416,-1.428745 0.349248,-0.603248 0.952497,-0.910164 0.613831,-0.317499 1.428745,-0.317499 0.93133,0 1.534578,0.370415 0.613832,0.370416 0.920748,1.005414 0.306915,0.634998 0.306915,1.449912 v 0.253999 q 0,0.116416 -0.08467,0.190499 -0.07408,0.07408 -0.179916,0.07408 h -3.386656 q 0,0.01058 0,0.03175 0,0.02117 0,0.04233 0.01058,0.306915 0.105833,0.560915 0.09525,0.253999 0.296332,0.402165 0.201083,0.148166 0.486832,0.148166 0.211666,0 0.349249,-0.0635 0.148166,-0.07408 0.243416,-0.158749 0.09525,-0.09525 0.148166,-0.15875 0.09525,-0.105833 0.148166,-0.126999 0.0635,-0.03175 0.1905,-0.03175 H 67.8739 q 0.105833,0 0.169333,0.0635 0.07408,0.05292 0.0635,0.158749 -0.01058,0.179916 -0.179916,0.433915 -0.169333,0.254 -0.497415,0.507999 -0.317499,0.243416 -0.804331,0.402165 -0.486831,0.15875 -1.132413,0.15875 z m -0.89958,-3.418406 h 1.788577 v -0.02117 q 0,-0.338665 -0.105833,-0.592664 -0.09525,-0.254 -0.306915,-0.391583 -0.201083,-0.137582 -0.486832,-0.137582 -0.285749,0 -0.486832,0.137582 -0.190499,0.137583 -0.296332,0.391583 -0.105833,0.253999 -0.105833,0.592664 z"
         style="font-style:normal;font-variant:normal;font-weight:bold;font-stretch:normal;font-family:Rubik;-inkscape-font-specification:'Rubik Bold';fill:#000000;stroke-width:0.264583"
         id="path932" />
      <path
         d="m 69.450815,41.53673 q -0.116416,0 -0.190499,-0.07408 -0.07408,-0.07408 -0.07408,-0.1905 v -1.344079 q 0,-0.105833 0.07408,-0.179916 0.07408,-0.08467 0.190499,-0.08467 h 1.333496 q 0.116416,0 0.190499,0.08467 0.08467,0.07408 0.08467,0.179916 v 1.344079 q 0,0.116417 -0.08467,0.1905 -0.07408,0.07408 -0.190499,0.07408 z"
         style="font-style:normal;font-variant:normal;font-weight:bold;font-stretch:normal;font-family:Rubik;-inkscape-font-specification:'Rubik Bold';fill:#000000;stroke-width:0.264583"
         id="path934" />
      <path
         d="m 71.272447,43.547557 q -0.116417,0 -0.1905,-0.07408 -0.07408,-0.07408 -0.07408,-0.1905 V 42.42573 q 0,-0.116416 0.07408,-0.1905 0.07408,-0.07408 0.1905,-0.07408 h 0.391582 q 0.264582,0 0.402165,-0.105833 0.137583,-0.09525 0.190499,-0.275165 0.05292,-0.169333 0.05292,-0.391582 v -5.090568 q 0,-0.116416 0.07408,-0.190499 0.08467,-0.07408 0.190499,-0.07408 h 1.31233 q 0.116416,0 0.190499,0.07408 0.07408,0.07408 0.07408,0.190499 v 5.132901 q 0,0.687914 -0.275166,1.153579 -0.264582,0.476249 -0.772581,0.719665 -0.507998,0.243416 -1.238246,0.243416 z m 1.291162,-8.307891 q -0.105833,0 -0.190499,-0.07408 -0.07408,-0.07408 -0.07408,-0.190499 V 34.03317 q 0,-0.116416 0.07408,-0.190499 0.08467,-0.08467 0.190499,-0.08467 h 1.333496 q 0.105833,0 0.179916,0.08467 0.08467,0.07408 0.08467,0.190499 v 0.941914 q 0,0.116416 -0.08467,0.190499 -0.07408,0.07408 -0.179916,0.07408 z"
         style="font-style:normal;font-variant:normal;font-weight:bold;font-stretch:normal;font-family:Rubik;-inkscape-font-specification:'Rubik Bold';fill:#000000;stroke-width:0.264583"
         id="path936" />
      <path
         d="m 77.863183,41.642563 q -0.687915,0 -1.174747,-0.148166 -0.476248,-0.15875 -0.783164,-0.380999 -0.296332,-0.22225 -0.444498,-0.455082 -0.148167,-0.243416 -0.15875,-0.412749 -0.01058,-0.116416 0.07408,-0.190499 0.08467,-0.08467 0.179916,-0.08467 h 1.206496 q 0.03175,0 0.05292,0.01058 0.02117,0.01058 0.0635,0.04233 0.137583,0.07408 0.275166,0.190499 0.137582,0.105833 0.317499,0.1905 0.179916,0.08467 0.433915,0.08467 0.296332,0 0.497415,-0.116416 0.201083,-0.116417 0.201083,-0.349249 0,-0.169333 -0.09525,-0.275166 -0.09525,-0.116416 -0.391582,-0.222249 -0.285749,-0.105833 -0.867831,-0.211666 -0.550331,-0.127 -0.96308,-0.328083 -0.412749,-0.211666 -0.634998,-0.539748 -0.222249,-0.338665 -0.222249,-0.814914 0,-0.423332 0.275165,-0.814914 0.275166,-0.391582 0.804331,-0.634998 0.529165,-0.253999 1.301746,-0.253999 0.613831,0 1.05833,0.148166 0.455082,0.137583 0.761998,0.359832 0.317499,0.22225 0.476248,0.455082 0.15875,0.232833 0.169333,0.423332 0.01058,0.105833 -0.0635,0.1905 -0.07408,0.07408 -0.169333,0.07408 h -1.100663 q -0.04233,0 -0.08467,-0.01058 -0.04233,-0.02117 -0.07408,-0.04233 -0.127,-0.0635 -0.254,-0.169333 -0.126999,-0.105833 -0.296332,-0.190499 -0.169333,-0.08467 -0.423332,-0.08467 -0.285749,0 -0.444498,0.126999 -0.15875,0.127 -0.15875,0.328082 0,0.137583 0.08467,0.254 0.09525,0.116416 0.370416,0.211666 0.285749,0.09525 0.878414,0.211666 0.730247,0.116416 1.164163,0.380998 0.433915,0.254 0.613831,0.603248 0.179916,0.338666 0.179916,0.719665 0,0.507998 -0.306915,0.89958 -0.296333,0.391582 -0.888998,0.613832 -0.592664,0.211666 -1.439328,0.211666 z"
         style="font-style:normal;font-variant:normal;font-weight:bold;font-stretch:normal;font-family:Rubik;-inkscape-font-specification:'Rubik Bold';fill:#000000;stroke-width:0.264583"
         id="path938" />
    </g>
  </g>
</svg>
