<?xml version="1.0" encoding="UTF-8"?><svg xmlns="http://www.w3.org/2000/svg" width="70mm" height="14mm" viewBox="0 0 70 14"><path fill="#0065ff" d="M0 0h70v14H0z"/><g fill="#fff" stroke-width=".26458" aria-label="zenfuse.js" style="shape-inside:url(#rect14);white-space:pre" transform="translate(-22.7716 -31.62613)"><path d="M26.843 41.537q-.10583 0-.1905-.07408-.07408-.07408-.07408-.1905v-.8255q0-.11642.04233-.20108.05292-.08467.127-.15875l2.4765-2.6882h-2.286q-.11642 0-.20108-.07408-.07408-.07408-.07408-.1905v-.83608q0-.11642.07408-.1905.08467-.07408.20108-.07408h4.2545q.10583 0 .17992.07408.08467.07408.08467.1905v.89958q0 .09525-.04233.16933-.04233.07408-.10583.14817l-2.413 2.6564h2.5082q.11642 0 .1905.07408.07408.07408.07408.1905v.83608q0 .11642-.07408.1905-.07408.07408-.1905.07408zM35.138 41.643q-1.2488 0-1.9897-.67733-.74083-.67733-.77258-2.0108V38.58445q.03175-.83608.37042-1.4287.34925-.60325.9525-.91016.61383-.3175 1.4287-.3175.93133 0 1.5346.37042.61383.37042.92075 1.0054.30692.635.30692 1.4499v.254q0 .11642-.08467.1905-.07408.07408-.17992.07408h-3.3867V39.34647q.01058.30692.10583.56092.09525.254.29633.40216.20108.14817.48683.14817.21167 0 .34925-.0635.14817-.07408.24342-.15875.09525-.09525.14817-.15875.09525-.10583.14817-.127.0635-.03175.1905-.03175h1.3123q.10583 0 .16933.0635.07408.05292.0635.15875-.01058.17992-.17992.43392-.16933.254-.49742.508-.3175.24342-.80433.40216-.48683.15875-1.1324.15875zm-.89958-3.4184h1.7886v-.02117q0-.33866-.10583-.59266-.09525-.254-.30692-.39158-.20108-.13758-.48683-.13758t-.48683.13758q-.1905.13758-.29633.39158-.10583.254-.10583.59266zM39.15 41.537q-.11642 0-.1905-.07408-.07408-.07408-.07408-.1905v-4.9742q0-.11642.07408-.1905.07408-.07408.1905-.07408h1.2171q.11642 0 .1905.07408.07408.07408.07408.1905v.40217q.27517-.32808.71966-.55033.4445-.22225 1.0477-.22225.61383 0 1.0795.27517.47625.27516.74083.81491.27517.52916.27517 1.3017v2.9527q0 .11642-.08467.1905-.07408.07408-.17992.07408h-1.3335q-.10583 0-.1905-.07408-.07408-.07408-.07408-.1905v-2.8892q0-.49742-.24342-.762-.23283-.27517-.6985-.27517-.43392 0-.6985.27517-.254.26458-.254.762v2.8892q0 .11642-.08467.1905-.07408.07408-.17992.07408zM46.517 41.537q-.10583 0-.1905-.07408-.07408-.07408-.07408-.1905v-3.8523h-.80433q-.11642 0-.1905-.07408-.07408-.07408-.07408-.1905v-.85725q0-.11642.07408-.1905.07408-.07408.1905-.07408h.80433v-.33867q0-.71966.27517-1.1536.28575-.4445.80433-.635.51858-.20108 1.2382-.20108h.8255q.10583 0 .17992.07408.08467.07408.08467.1905v.85725q0 .11642-.08467.1905-.07408.07408-.17992.07408h-.74083q-.35983 0-.508.16933-.13758.16933-.13758.48683v.28575h1.2806q.10583 0 .17992.07408.08467.07408.08467.1905v.85725q0 .11642-.08467.1905-.07408.07408-.17992.07408h-1.2806v3.8523q0 .11642-.07408.1905-.07408.07408-.1905.07408zM52.338 41.643q-.60325 0-1.0795-.27517-.46566-.27517-.73025-.80433-.26458-.53975-.26458-1.3123v-2.9527q0-.11642.07408-.1905.07408-.07408.1905-.07408h1.3229q.11642 0 .1905.07408.07408.07408.07408.1905v2.8892q0 1.0372.93133 1.0372.43392 0 .68792-.26458.26458-.27517.26458-.77258v-2.8892q0-.11642.07408-.1905.07408-.07408.1905-.07408h1.3229q.11642 0 .1905.07408.07408.07408.07408.1905v4.9742q0 .11642-.07408.1905-.07408.07408-.1905.07408h-1.2277q-.10583 0-.1905-.07408-.07408-.07408-.07408-.1905v-.40216q-.27517.381-.71966.58208-.43392.1905-1.0372.1905zM59.365 41.643q-.68791 0-1.1747-.14817-.47625-.15875-.78316-.381-.29633-.22225-.4445-.45508-.14817-.24342-.15875-.41275-.01058-.11642.07408-.1905.08467-.08467.17992-.08467h1.2065q.03175 0 .05292.01058t.0635.04233q.13758.07408.27517.1905.13758.10583.3175.1905.17992.08467.43392.08467.29633 0 .49742-.11642.20108-.11642.20108-.34925 0-.16933-.09525-.27517-.09525-.11642-.39158-.22225-.28575-.10583-.86783-.21167-.55033-.127-.96308-.32808-.41275-.21167-.635-.53975-.22225-.33866-.22225-.81491 0-.42333.27517-.81491t.80433-.635q.52916-.254 1.3017-.254.61383 0 1.0583.14817.45508.13758.762.35983.3175.22225.47625.45508.15875.23283.16933.42333.01058.10583-.0635.1905-.07408.07408-.16933.07408h-1.1007q-.04233 0-.08467-.01058-.04233-.02117-.07408-.04233-.127-.0635-.254-.16933-.127-.10583-.29633-.1905-.16933-.08467-.42333-.08467-.28575 0-.4445.127t-.15875.32808q0 .13758.08467.254.09525.11642.37042.21167.28575.09525.87841.21167.73025.11642 1.1642.381.43392.254.61383.60325.17992.33867.17992.71966 0 .508-.30692.89958-.29633.39158-.889.61383-.59266.21167-1.4393.21167zM65.493 41.643q-1.2488 0-1.9897-.67733-.74083-.67733-.77258-2.0108V38.58445q.03175-.83608.37042-1.4287.34925-.60325.9525-.91016.61383-.3175 1.4287-.3175.93133 0 1.5346.37042.61383.37042.92075 1.0054.30692.635.30692 1.4499v.254q0 .11642-.08467.1905-.07408.07408-.17992.07408h-3.3867V39.34647q.01058.30692.10583.56092.09525.254.29633.40216.20108.14817.48683.14817.21167 0 .34925-.0635.14817-.07408.24342-.15875.09525-.09525.14817-.15875.09525-.10583.14817-.127.0635-.03175.1905-.03175h1.3123q.10583 0 .16933.0635.07408.05292.0635.15875-.01058.17992-.17992.43392-.16933.254-.49742.508-.3175.24342-.80433.40216-.48683.15875-1.1324.15875zm-.89958-3.4184h1.7886v-.02117q0-.33866-.10583-.59266-.09525-.254-.30692-.39158-.20108-.13758-.48683-.13758t-.48683.13758q-.1905.13758-.29633.39158-.10583.254-.10583.59266zM69.451 41.537q-.11642 0-.1905-.07408-.07408-.07408-.07408-.1905v-1.3441q0-.10583.07408-.17992.07408-.08467.1905-.08467h1.3335q.11642 0 .1905.08467.08467.07408.08467.17992v1.3441q0 .11642-.08467.1905-.07408.07408-.1905.07408zM71.272 43.548q-.11642 0-.1905-.07408-.07408-.07408-.07408-.1905v-.85725q0-.11642.07408-.1905.07408-.07408.1905-.07408h.39158q.26458 0 .40216-.10583.13758-.09525.1905-.27516.05292-.16933.05292-.39158v-5.0906q0-.11642.07408-.1905.08467-.07408.1905-.07408h1.3123q.11642 0 .1905.07408.07408.07408.07408.1905v5.1329q0 .68791-.27517 1.1536-.26458.47625-.77258.71966-.508.24342-1.2382.24342zm1.2912-8.3079q-.10583 0-.1905-.07408-.07408-.07408-.07408-.1905v-.94192q0-.11642.07408-.1905.08467-.08467.1905-.08467h1.3335q.10583 0 .17992.08467.08467.07408.08467.1905v.94191q0 .11642-.08467.1905-.07408.07408-.17992.07408zM77.863 41.643q-.68792 0-1.1747-.14817-.47625-.15875-.78316-.381-.29633-.22225-.4445-.45508-.14817-.24342-.15875-.41275-.01058-.11642.07408-.1905.08467-.08467.17992-.08467h1.2065q.03175 0 .05292.01058t.0635.04233q.13758.07408.27517.1905.13758.10583.3175.1905.17992.08467.43392.08467.29633 0 .49742-.11642.20108-.11642.20108-.34925 0-.16933-.09525-.27517-.09525-.11642-.39158-.22225-.28575-.10583-.86783-.21167-.55033-.127-.96308-.32808-.41275-.21167-.635-.53975-.22225-.33866-.22225-.81491 0-.42333.27516-.81491.27517-.39158.80433-.635.52916-.254 1.3017-.254.61383 0 1.0583.14817.45508.13758.762.35983.3175.22225.47625.45508.15875.23283.16933.42333.01058.10583-.0635.1905-.07408.07408-.16933.07408h-1.1007q-.04233 0-.08467-.01058-.04233-.02117-.07408-.04233-.127-.0635-.254-.16933-.127-.10583-.29633-.1905-.16933-.08467-.42333-.08467-.28575 0-.4445.127t-.15875.32808q0 .13758.08467.254.09525.11642.37042.21167.28575.09525.87841.21167.73025.11642 1.1642.381.43392.254.61383.60325.17992.33867.17992.71966 0 .508-.30692.89958-.29633.39158-.889.61383-.59266.21167-1.4393.21167z"/></g></svg>