<?xml version="1.0" encoding="utf-8"?>
<!-- Generator: Adobe Illustrator 24.0.1, SVG Export Plug-In . SVG Version: 6.00 Build 0)  -->
<svg version="1.1" id="图层_1" xmlns="http://www.w3.org/2000/svg" xmlns:xlink="http://www.w3.org/1999/xlink" x="0px" y="0px"
	 viewBox="0 0 125 23.7" style="enable-background:new 0 0 125 23.7;" xml:space="preserve">
<style type="text/css">
	.st0{fill:#FFFFFF;}
	.st1{fill:url(#SVGID_1_);}
	.st2{fill:#F37320;}
</style>
<g>
	<polygon class="st0" points="40.3,20.5 42.8,20.5 46.1,8.6 43.5,8.6 	"/>
	<polygon class="st0" points="58.4,8.6 47.3,8.6 46.7,10.7 51,10.7 48.4,20.5 50.9,20.5 53.6,10.7 57.8,10.7 	"/>
	<path class="st0" d="M62.5,11.4c0.6-0.5,1.4-0.7,2.5-0.7h4.3l0.6-2.1h-4.6c-1.2,0-2.3,0.2-3.1,0.5c-0.9,0.3-1.6,0.9-2.3,1.7
		c-0.9,1-1.5,2.3-1.9,3.9c-0.6,2.4-0.5,4,0.5,5c0.3,0.3,0.8,0.6,1.3,0.7s1.2,0.2,2.1,0.2h1.8c1.9,0,4-1.5,4.6-3.4
		c0.6-2-0.5-3.7-2.6-3.7H64c-0.6,0-1.2,0.5-1.4,1.1l0,0c-0.2,0.6,0.2,1.1,0.8,1.1h1.2c0.8,0,1.3,0.6,1.1,1.4c-0.2,0.8-1,1.5-1.8,1.5
		h-1c-0.6,0-1.1-0.1-1.4-0.2c-0.4-0.1-0.6-0.3-0.8-0.6c-0.2-0.3-0.3-0.7-0.3-1.3c0-0.6,0.1-1.2,0.3-2C61.2,12.9,61.8,11.9,62.5,11.4
		z"/>
	<path class="st0" d="M72.8,18.1c-0.4-0.2-0.6-0.6-0.5-1.1c0-0.3,0.2-0.8,0.3-1.7l1.8-6.7h-2.5l-1.8,6.7c-0.3,1.2-0.5,2-0.5,2.5
		c0,1.3,0.6,2.1,1.8,2.5c0.5,0.1,1.4,0.2,2.7,0.2h2.7l0.6-2.1H75C73.9,18.4,73.2,18.3,72.8,18.1z"/>
	<path class="st0" d="M91.1,11.6c-0.1-1.1-0.6-2-1.4-2.5C89,8.7,88,8.5,86.9,8.5c-1.7,0-3.1,0.4-4.2,1.2c-1.3,1-2.3,2.6-2.9,4.9
		c-0.3,1.3-0.4,2.4-0.3,3.3c0.2,0.9,0.6,1.6,1.3,2c0.8,0.5,1.8,0.8,3.1,0.8c1,0,1.8-0.2,2.7-0.5c1.1-0.4,2-1.2,2.8-2.2
		c0.6-0.9,1.1-2,1.4-3.2C91.1,13.5,91.2,12.4,91.1,11.6z M88.2,14.5c-0.4,1.4-0.9,2.4-1.5,3.1s-1.5,1-2.4,1c-1,0-1.7-0.3-2-1
		C82,17,82,15.9,82.4,14.5c0.4-1.3,0.8-2.3,1.3-2.9c0.7-0.8,1.6-1.1,2.7-1.1s1.8,0.4,2,1.2C88.6,12.3,88.5,13.3,88.2,14.5z"/>
	<polygon class="st0" points="110.3,8.6 102.8,20.5 105.4,20.5 110.8,11.4 111.3,20.5 113.8,20.5 112.8,8.6 	"/>
	<path class="st0" d="M121.4,18.4c-1.1,0-1.9-0.1-2.3-0.3c-0.4-0.2-0.6-0.6-0.5-1.1c0-0.3,0.2-0.8,0.3-1.7l1.8-6.7h-2.5l-1.8,6.7
		c-0.3,1.2-0.5,2-0.5,2.5c0,1.3,0.6,2.1,1.8,2.5c0.5,0.1,1.4,0.2,2.7,0.2h2.7l0.6-2.1H121.4z"/>
	<path class="st0" d="M40.7,12.1L40.7,12.1c0.5-2-0.6-3.6-2.6-3.6h-4.9c-1.5,0-2.8,1-3.2,2.5l-2.5,9.5h0.1H30h4.9c2,0,4-1.6,4.5-3.6
		l0,0c0.3-1,0.1-1.8-0.4-2.4C39.8,13.9,40.4,13.1,40.7,12.1z M36.8,17c-0.2,0.8-1,1.4-1.8,1.4h-4.5l0.8-2.8h4.5
		C36.6,15.6,37,16.2,36.8,17z M38.1,12.1c-0.2,0.8-1,1.4-1.8,1.4h-4.5l0.4-1.7c0.2-0.7,0.8-1.2,1.5-1.2H37
		C37.9,10.7,38.3,11.3,38.1,12.1z"/>
	<path class="st0" d="M103.8,12.1L103.8,12.1c0.5-2-0.6-3.6-2.6-3.6h-4.9c-1.5,0-2.8,1-3.2,2.5l-2.5,9.5h0.1h2.4H98
		c2,0,4-1.6,4.5-3.6l0,0c0.3-1,0.1-1.8-0.4-2.4C102.9,13.9,103.6,13.1,103.8,12.1z M100,17c-0.2,0.8-1,1.4-1.8,1.4h-4.5l0.8-2.8H99
		C99.7,15.6,100.2,16.2,100,17z M101.3,12.1c-0.2,0.8-1,1.4-1.8,1.4H95l0.4-1.7c0.2-0.7,0.8-1.2,1.5-1.2h3.3
		C101,10.7,101.5,11.3,101.3,12.1z"/>
</g>
<g>
	
		<linearGradient id="SVGID_1_" gradientUnits="userSpaceOnUse" x1="23.1676" y1="10.9829" x2="10.3446" y2="6.2724" gradientTransform="matrix(1 0 0 -1 0 25)">
		<stop  offset="0.3633" style="stop-color:#D63026"/>
		<stop  offset="1" style="stop-color:#F37320"/>
	</linearGradient>
	<path class="st1" d="M21.1,10.8L17.6,12l-1.7,2l-0.7,2.5H5.7l-1.1,4.1h10.6c2.8,0,5.9-2.1,6.9-5C22.8,13.6,22.3,11.9,21.1,10.8z"/>
	<path class="st2" d="M9,16.5c-2.7,0-2.8-2-2.5-3.1s0,0,0.5-2c0.3-1,1-2.1,2-2.9l0,0c0.1-0.1,0.3-0.2,0.4-0.3c0,0,0,0,0.1,0
		c0.9-0.5,1.9-0.9,3-0.9c2.9,0,5.1,0,5.1,0L18,6.1l3,2.5l-4.4,2.5L17,9.8h-4.8c-1.7,0-2.2,1.2-2.4,1.7C9.7,12.3,9.5,14,11.6,14h3.7
		H17c2.8,0,5.9-2.1,6.9-5c1-3.1-0.7-5.7-3.8-5.7H9.9c-1.1,0-2.2,0.3-3,0.9c0,0,0,0-0.1,0C6.7,4.3,6.5,4.4,6.4,4.5l0,0
		c-1,0.8-1.7,1.8-2,2.9L0.9,20.6h4.4l1.1-4.1h3l0,0c-0.2,0-0.4,0-0.5,0"/>
</g>
</svg>
